<?xml version="1.0" standalone="no"?>
<!DOCTYPE svg PUBLIC "-//W3C//DTD SVG 20010904//EN"
 "http://www.w3.org/TR/2001/REC-SVG-20010904/DTD/svg10.dtd">
<svg version="1.0" xmlns="http://www.w3.org/2000/svg"
 width="16.000000pt" height="16.000000pt" viewBox="0 0 16.000000 16.000000"
 preserveAspectRatio="xMidYMid meet">
<metadata>
Created by potrace 1.11, written by Peter Selinger 2001-2013
</metadata>
<g transform="translate(0.000000,16.000000) scale(0.002500,-0.002500)"
fill="#000000" stroke="none">
<path d="M95 4730 c-2 -3 -4 -693 -4 -1533 0 -1164 3 -1527 12 -1528 7 -1 713
-3 1571 -3 l1559 -2 1533 1532 c844 842 1534 1533 1534 1536 0 6 -6201 4
-6205 -2z"/>
<path d="M4070 2047 c-82 -39 -121 -98 -121 -181 0 -167 178 -259 316 -165
117 81 103 274 -25 339 -44 22 -129 26 -170 7z m168 -44 c127 -94 66 -303 -88
-303 -95 0 -161 66 -163 163 -2 67 28 117 88 148 49 25 124 21 163 -8z"/>
<path d="M4070 1863 c0 -103 2 -113 18 -113 16 0 18 8 17 50 -1 45 1 50 20 50
14 0 30 -15 50 -50 18 -29 37 -50 48 -50 23 0 21 9 -14 55 -28 37 -29 40 -10
47 49 18 51 101 3 119 -14 5 -50 9 -79 8 l-53 -2 0 -114z m120 72 c29 -35 -18
-72 -68 -54 -16 6 -21 15 -18 31 3 13 5 26 5 31 2 13 68 7 81 -8z"/>
</g>
</svg>
